<svg id="Layer_1" data-name="Layer 1" xmlns="http://www.w3.org/2000/svg" viewBox="0 0 800 237.49"><defs><style>.cls-1{fill:#fff;}</style></defs><title>Broadly Logo-White</title><path class="cls-1" d="M144.34,154V33.41h22.3q17.67,0,25.6,7.27T200.17,64q0,12.06-3.88,18.62T183.9,91.89q9.5,2.23,13.8,8.71T202,119.31q0,17.84-8.26,26.26T168,154H144.34Zm16.18-68.88h5.95q9.17,0,13.47-4.54t4.29-14.21q0-10.16-4-14.37t-13.75-4.21h-5.95V85.12Zm0,53.52H166q11.23,0,15.4-4.29t4.17-15.2q0-11-4.5-15.81t-14.9-4.83h-5.62v40.14Z" transform="translate(-16.57 -31.84)"/><path class="cls-1" d="M245.45,95.11V154H229.18V33.41h19.66q19.57,0,27.87,7.27t8.3,24.2q0,13.38-5.7,20.85t-17,8.88L291,154H273.54L246,95.11h-0.5Zm0-9.25h5q9.91,0,14-4.63t4.09-16.35q0-9.75-3.92-13.5T250,47.62h-4.55V85.86Z" transform="translate(-16.57 -31.84)"/><path class="cls-1" d="M309.15,93.79q0-33.12,8-47.53t26.27-14.41q18.15,0,26.15,14.33t8,47.62q0,33.12-8,47.4t-26.15,14.29q-18.24,0-26.27-14.29T309.15,93.79Zm16.43-.33q0,25.6,4.16,36.13t13.88,10.53q9.64,0,13.6-10t4-36.67q0-26-4-36.26T343.47,47q-9.73,0-13.8,10.32T325.59,93.46Z" transform="translate(-16.57 -31.84)"/><path class="cls-1" d="M395.25,154L423.5,33.41h15.28L467,154H450.59l-5.78-23.7h-27.5L411.69,154H395.25Zm35.93-89.45-10.9,52.19H442Z" transform="translate(-16.57 -31.84)"/><path class="cls-1" d="M491,154V33.41h21.47q24.61,0,34.65,13.5t10,46.71q0,33.28-10,46.83T512.43,154H491Zm16.43-15.53h8.43q13.7,0,19.28-9.91t5.58-35.1q0-25.11-5.53-35t-19.33-9.87h-8.43v89.86Z" transform="translate(-16.57 -31.84)"/><path class="cls-1" d="M584.68,154V33.41h16.27V139H635.8v15H584.68Z" transform="translate(-16.57 -31.84)"/><path class="cls-1" d="M682.6,102.71V154H665.83V102.71l-22.71-69.3h16.76L670,67q1,3.3,2.11,8.3t2.11,11q0.82-5.28,1.86-10t2.35-9.17l10.16-33.78h16.93Z" transform="translate(-16.57 -31.84)"/><polygon class="cls-1" points="39.47 114.05 0 62.66 39.47 11.26 39.47 114.05"/><polygon class="cls-1" points="760.51 11.23 800 62.64 760.51 114.03 760.51 11.23"/><path class="cls-1" d="M140.69,268.42V264.7l3.81-.38c0.84-.15,1-0.31,1-1.14V231.8c0-.84-0.15-1.07-1-1.14l-3.81-.45V226.4h18.78c10.26,0,13.14,4.48,13.14,10.27a9.93,9.93,0,0,1-7.3,9.73v0.22c6.84,0.76,10.11,4.56,10.11,10.34,0,8.66-6.84,11.47-16.26,11.47H140.69Zm16.11-23.79c4.33,0,9-1.22,9-6.91,0-5-3-6.3-8.2-6.3h-5.32v13.22h4.48Zm1.36,18.78c5.86,0,10.11-1.07,10.11-7.07,0-5.32-4-7.06-9-7.06h-6.91v14.14h5.85Z" transform="translate(-16.57 -31.84)"/><path class="cls-1" d="M212.65,268.42V264.7l4.63-.61-4.86-11.47a3,3,0,0,0-3-2.05h-6.15V263.1c0,0.91.07,1,1,1.14l3.72,0.45v3.72H191.6V264.7l3.8-.38a0.88,0.88,0,0,0,1-1.07V231.71c0-.84-0.16-1.06-1-1.13l-3.8-.45V226.4h19.22c10.87,0,13.76,5.7,13.76,11.48,0,6.08-3.42,9.42-8.2,11.24,1.83,0.84,2.36,1.83,3.42,4.48l3.65,9a1.93,1.93,0,0,0,1.67,1.44l4,0.69v3.72H212.65Zm-4.86-22.57c5.17,0,9.58-1.44,9.58-7.68,0-5.39-3.42-6.76-10-6.76h-4.1v14.43h4.56Z" transform="translate(-16.57 -31.84)"/><path class="cls-1" d="M242.2,247.6c0-12.61,7.21-22,21-22s20,9.27,20,21c0,13.61-6.84,22.72-20.83,22.72S242.2,260.06,242.2,247.6Zm33.89-.45c0-10.65-4.94-16-12.92-16s-13.83,5.47-13.83,16.11c0,11.17,5.32,16.41,13.45,16.41C270.69,263.63,276.09,258.62,276.09,247.15Z" transform="translate(-16.57 -31.84)"/><path class="cls-1" d="M323.22,268.42V264.7l5.09-.53-2.58-7.53H309.23l-2.74,7.53,4.79,0.53v3.72h-14.9V264.7l2.28-.38a2,2,0,0,0,1.82-1.45l13.08-36.48h8.28l13.3,36.86a1.74,1.74,0,0,0,1.44,1l2.74,0.45v3.72h-16.1Zm-5.78-36h-0.07l-6.53,19h13.3Z" transform="translate(-16.57 -31.84)"/><path class="cls-1" d="M355.42,268.42v-3.8l3.72-.38c0.84-.07,1-0.23,1-1V231.71c0-.84-0.15-1-1-1.13l-3.72-.45V226.4H373.9c15,0,21.51,7.83,21.51,20.37,0,12.84-7.07,21.65-22.57,21.65h-17.4Zm17.18-5c11,0,15.65-6.24,15.65-16,0-12.08-5.24-16-15.27-16h-5.93v32h5.55Z" transform="translate(-16.57 -31.84)"/><path class="cls-1" d="M411.23,268.42V264.7l3.72-.45a0.91,0.91,0,0,0,1-1.14V231.71c0-.84-0.15-1.13-1-1.13l-3.72-.45V226.4h17.56v3.73l-5,.45c-0.84.07-.91,0.3-0.91,1.13v31.77h13.6c0.61,0,.84-0.07.92-0.61l1-5.54h4.94v11.09H411.23Z" transform="translate(-16.57 -31.84)"/><path class="cls-1" d="M463.46,268.42V264.7l5.7-.45a0.94,0.94,0,0,0,1-1.14V252.47l-11.93-20.75a2,2,0,0,0-1.45-1l-2.66-.6,0.54-3.73h15v3.73l-4.64.45,8.74,16.34,8.66-16.34-4.33-.45,0.6-3.73h13.53v3.73l-2.52.6c-0.91.23-1.29,0.69-2.13,2.2l-10.56,19.38V263.1c0,0.84,0,1.07.91,1.14l6.15,0.45v3.72H463.46Z" transform="translate(-16.57 -31.84)"/><path class="cls-1" d="M509.12,269.33c-3.27,0-5-1.6-5-4.79s1.75-4.78,5-4.78,5,1.6,5,4.78S512.38,269.33,509.12,269.33Z" transform="translate(-16.57 -31.84)"/><path class="cls-1" d="M564.72,266.22c-3.35,2.05-9.12,3.11-14.59,3.11-14.67,0-20.67-9-20.67-22.18,0-12.32,7.21-21.51,21.8-21.51,5.17,0,10.27,1.22,13.37,3.19v10.11l-4.94-.31-0.91-5.23a1.49,1.49,0,0,0-1-1.45,21.84,21.84,0,0,0-6.83-1.07c-8.67,0-14.29,5.62-14.29,16.27,0,11.17,5.33,16.94,13.91,16.94,2.65,0,5.77-.22,7.68-1.14,0.53-.22.68-0.53,0.84-1.44l0.84-4.79h4.79v9.5Z" transform="translate(-16.57 -31.84)"/><path class="cls-1" d="M581.63,247.6c0-12.61,7.21-22,21-22s20,9.27,20,21c0,13.61-6.84,22.72-20.83,22.72S581.63,260.06,581.63,247.6Zm33.89-.45c0-10.65-4.94-16-12.92-16s-13.83,5.47-13.83,16.11c0,11.17,5.32,16.41,13.45,16.41C610.12,263.63,615.51,258.62,615.51,247.15Z" transform="translate(-16.57 -31.84)"/><path class="cls-1" d="M672.71,268.42V264.7l5-.38c0.69-.07.91-0.31,0.91-1.14V235.59l-11,23.71h-7.37L649.61,236V263.1c0,0.91,0,1.07.91,1.14l5.17,0.45v3.72H638.44V264.7l3.72-.38a0.88,0.88,0,0,0,1-1.07V231.71c0-.84-0.16-1.06-1-1.13l-3.72-.45V226.4h13.68l12.08,27.29,12.38-27.29h13.53v3.73l-4,.45a1,1,0,0,0-1,1.29v31.31a0.88,0.88,0,0,0,1,1.07l4,0.45v3.72h-17.4Z" transform="translate(-16.57 -31.84)"/></svg>